<?xml version="1.0" encoding="utf-8"?>
<!-- Generator: Adobe Illustrator 15.0.2, SVG Export Plug-In . SVG Version: 6.00 Build 0)  -->
<!DOCTYPE svg PUBLIC "-//W3C//DTD SVG 1.1//EN" "http://www.w3.org/Graphics/SVG/1.1/DTD/svg11.dtd">
<svg version="1.1" id="Layer_1" xmlns="http://www.w3.org/2000/svg" xmlns:xlink="http://www.w3.org/1999/xlink" x="0px" y="0px"
	 width="612px" height="792px" viewBox="0 0 612 792" enable-background="new 0 0 612 792" xml:space="preserve">
<text transform="matrix(1 0 0 1 26.7026 46.8379)" font-family="'CenturyGothic'" font-size="23.4244">Sample Invoice Template</text>
<rect x="27.785" y="54.008" fill="#BFBFBF" width="594.223" height="11"/>
<rect x="37" y="167.783" fill="#FAFAFA" width="538" height="455.13"/>
<rect x="37" y="167.783" fill="#BFBFBF" width="538" height="16.225"/>
<text transform="matrix(1 0 0 1 42.335 179.6738)" fill="#FFFFFF" font-family="'CenturyGothic'" font-size="12">date</text>
<text transform="matrix(1 0 0 1 115.666 179.6738)" fill="#FFFFFF" font-family="'CenturyGothic'" font-size="12">description</text>
<text transform="matrix(1 0 0 1 422.332 179.6738)" fill="#FFFFFF" font-family="'CenturyGothic'" font-size="12">time</text>
<text transform="matrix(1 0 0 1 500.334 179.6738)" fill="#FFFFFF" font-family="'CenturyGothic'" font-size="12">amount</text>
<text transform="matrix(1 0 0 1 456.333 636.3408)" font-family="'CenturyGothic'" font-size="12">total:</text>
<text transform="matrix(1 0 0 1 40.3335 700.333)" fill="#808080" font-family="'CenturyGothic'" font-size="12">Please make payable to:</text>
<text transform="matrix(1 0 0 1 186.1792 700.333)" font-family="'ArialMT'" font-size="12">         </text>
<text transform="matrix(1 0 0 1 40.3335 714.7334)" font-family="'CenturyGothic'" font-size="12">$COMPANY</text>
<text transform="matrix(1 0 0 1 109.2632 714.7334)" font-family="'ArialMT'" font-size="12">         </text>
<text transform="matrix(1 0 0 1 40.3335 729.1328)" font-family="'CenturyGothic'" font-size="12">$EMAIL</text>
<text transform="matrix(1 0 0 1 81.5776 729.1328)" font-family="'ArialMT'" font-size="12">         </text>
<text transform="matrix(1 0 0 1 40.3335 743.5332)" font-family="'CenturyGothic'" font-size="12">$ADDRESS</text>
<text transform="matrix(1 0 0 1 99.3901 743.5332)" font-family="'ArialMT'" font-size="12">         </text>
<text transform="matrix(1 0 0 1 40.3335 757.9326)" font-family="'CenturyGothic'" font-size="12">$CITY, $STATE, $ZIP</text>
<text transform="matrix(1 0 0 1 427.1758 82.1641)" fill="#808080" font-family="'CenturyGothic'" font-size="16.2567">invoice: $INVOICENUMBER</text>
<text transform="matrix(1 0 0 1 37 127.6748)" font-family="'CenturyGothic'" font-size="16.2567">client: $CLIENT</text>
<text transform="matrix(1 0 0 1 150.0903 127.6748)" font-family="'ArialMT'" font-size="12">         </text>
<text transform="matrix(1 0 0 1 37 147.1826)" fill="#808080" font-family="'CenturyGothic'" font-size="16.2567">$INVOICEDATE</text>
<text transform="matrix(1 0 0 1 500.334 636.3408)" font-family="'CenturyGothic'" font-size="12">$TOTAL</text>
<line fill="none" stroke="#FFFFFF" stroke-width="3" stroke-miterlimit="10" x1="107" y1="159.675" x2="107" y2="651.675"/>
<line fill="none" stroke="#FFFFFF" stroke-width="3" stroke-miterlimit="10" x1="414" y1="159.675" x2="414" y2="651.675"/>
<line fill="none" stroke="#FFFFFF" stroke-width="3" stroke-miterlimit="10" x1="492" y1="159.675" x2="492" y2="651.675"/>
</svg>
